<svg width="27" height="16" viewBox="0 0 27 16" fill="none" xmlns="http://www.w3.org/2000/svg">
<g clip-path="url(#clip0_702_286)">
<path d="M4.86065 13.8826L1.33332 14.6666L2.11732 11.1393C1.60101 10.1735 1.33167 9.09502 1.33332 7.99992C1.33332 4.31792 4.31799 1.33325 7.99999 1.33325C11.682 1.33325 14.6667 4.31792 14.6667 7.99992C14.6667 11.6819 11.682 14.6666 7.99999 14.6666C6.90489 14.6682 5.8264 14.3989 4.86065 13.8826ZM5.05399 12.4739L5.48932 12.7073C6.26169 13.12 7.12425 13.3351 7.99999 13.3333C9.05482 13.3333 10.086 13.0205 10.963 12.4344C11.8401 11.8484 12.5237 11.0154 12.9273 10.0409C13.331 9.06636 13.4366 7.994 13.2308 6.95944C13.0251 5.92487 12.5171 4.97456 11.7712 4.22868C11.0253 3.4828 10.075 2.97485 9.04047 2.76906C8.0059 2.56328 6.93355 2.66889 5.95901 3.07256C4.98447 3.47623 4.15152 4.15982 3.56548 5.03688C2.97945 5.91394 2.66665 6.94509 2.66665 7.99992C2.66665 8.88925 2.88332 9.74525 3.29332 10.5106L3.52599 10.9459L3.08932 12.9106L5.05399 12.4739Z" fill="#979797"/>
</g>
<path d="M20.612 11.124C21.628 10.308 22.424 9.64 23 9.12C23.576 8.592 24.06 8.044 24.452 7.476C24.852 6.9 25.052 6.336 25.052 5.784C25.052 5.264 24.924 4.856 24.668 4.56C24.42 4.256 24.016 4.104 23.456 4.104C22.912 4.104 22.488 4.276 22.184 4.62C21.888 4.956 21.728 5.408 21.704 5.976H20.648C20.68 5.08 20.952 4.388 21.464 3.9C21.976 3.412 22.636 3.168 23.444 3.168C24.268 3.168 24.92 3.396 25.4 3.852C25.888 4.308 26.132 4.936 26.132 5.736C26.132 6.4 25.932 7.048 25.532 7.68C25.14 8.304 24.692 8.856 24.188 9.336C23.684 9.808 23.04 10.36 22.256 10.992H26.384V11.904H20.612V11.124Z" fill="#979797"/>
<defs>
<clipPath id="clip0_702_286">
<rect width="16" height="16" fill="white"/>
</clipPath>
</defs>
</svg>
