<svg width="96" height="16" viewBox="0 0 96 16" fill="none" xmlns="http://www.w3.org/2000/svg">
<g clip-path="url(#clip0_702_280)">
<path d="M2.66669 14.6667C2.66669 13.2523 3.22859 11.8957 4.22878 10.8955C5.22898 9.89532 6.58553 9.33342 8.00002 9.33342C9.41451 9.33342 10.7711 9.89532 11.7713 10.8955C12.7715 11.8957 13.3334 13.2523 13.3334 14.6667H12C12 13.6059 11.5786 12.5885 10.8284 11.8383C10.0783 11.0882 9.06089 10.6667 8.00002 10.6667C6.93915 10.6667 5.92174 11.0882 5.17159 11.8383C4.42145 12.5885 4.00002 13.6059 4.00002 14.6667H2.66669ZM8.00002 8.66675C5.79002 8.66675 4.00002 6.87675 4.00002 4.66675C4.00002 2.45675 5.79002 0.666748 8.00002 0.666748C10.21 0.666748 12 2.45675 12 4.66675C12 6.87675 10.21 8.66675 8.00002 8.66675ZM8.00002 7.33342C9.47335 7.33342 10.6667 6.14008 10.6667 4.66675C10.6667 3.19341 9.47335 2.00008 8.00002 2.00008C6.52669 2.00008 5.33335 3.19341 5.33335 4.66675C5.33335 6.14008 6.52669 7.33342 8.00002 7.33342Z" fill="#979797"/>
</g>
<path d="M29.408 3.696V12H28.316V5.808L25.556 12H24.788L22.016 5.796V12H20.924V3.696H22.1L25.172 10.56L28.244 3.696H29.408ZM30.8519 8.688C30.8519 8.016 30.9879 7.428 31.2599 6.924C31.5319 6.412 31.9039 6.016 32.3759 5.736C32.8559 5.456 33.3879 5.316 33.9719 5.316C34.5479 5.316 35.0479 5.44 35.4719 5.688C35.8959 5.936 36.2119 6.248 36.4199 6.624V5.424H37.5239V12H36.4199V10.776C36.2039 11.16 35.8799 11.48 35.4479 11.736C35.0239 11.984 34.5279 12.108 33.9599 12.108C33.3759 12.108 32.8479 11.964 32.3759 11.676C31.9039 11.388 31.5319 10.984 31.2599 10.464C30.9879 9.944 30.8519 9.352 30.8519 8.688ZM36.4199 8.7C36.4199 8.204 36.3199 7.772 36.1199 7.404C35.9199 7.036 35.6479 6.756 35.3039 6.564C34.9679 6.364 34.5959 6.264 34.1879 6.264C33.7799 6.264 33.4079 6.36 33.0719 6.552C32.7359 6.744 32.4679 7.024 32.2679 7.392C32.0679 7.76 31.9679 8.192 31.9679 8.688C31.9679 9.192 32.0679 9.632 32.2679 10.008C32.4679 10.376 32.7359 10.66 33.0719 10.86C33.4079 11.052 33.7799 11.148 34.1879 11.148C34.5959 11.148 34.9679 11.052 35.3039 10.86C35.6479 10.66 35.9199 10.376 36.1199 10.008C36.3199 9.632 36.4199 9.196 36.4199 8.7ZM40.4613 6.492C40.6533 6.116 40.9253 5.824 41.2773 5.616C41.6373 5.408 42.0733 5.304 42.5853 5.304V6.432H42.2973C41.0733 6.432 40.4613 7.096 40.4613 8.424V12H39.3693V5.424H40.4613V6.492ZM44.4099 4.356C44.2019 4.356 44.0259 4.284 43.8819 4.14C43.7379 3.996 43.6659 3.82 43.6659 3.612C43.6659 3.404 43.7379 3.228 43.8819 3.084C44.0259 2.94 44.2019 2.868 44.4099 2.868C44.6099 2.868 44.7779 2.94 44.9139 3.084C45.0579 3.228 45.1299 3.404 45.1299 3.612C45.1299 3.82 45.0579 3.996 44.9139 4.14C44.7779 4.284 44.6099 4.356 44.4099 4.356ZM44.9379 5.424V12H43.8459V5.424H44.9379ZM46.391 8.688C46.391 8.016 46.527 7.428 46.799 6.924C47.071 6.412 47.443 6.016 47.915 5.736C48.395 5.456 48.927 5.316 49.511 5.316C50.087 5.316 50.587 5.44 51.011 5.688C51.435 5.936 51.751 6.248 51.959 6.624V5.424H53.063V12H51.959V10.776C51.743 11.16 51.419 11.48 50.987 11.736C50.563 11.984 50.067 12.108 49.499 12.108C48.915 12.108 48.387 11.964 47.915 11.676C47.443 11.388 47.071 10.984 46.799 10.464C46.527 9.944 46.391 9.352 46.391 8.688ZM51.959 8.7C51.959 8.204 51.859 7.772 51.659 7.404C51.459 7.036 51.187 6.756 50.843 6.564C50.507 6.364 50.135 6.264 49.727 6.264C49.319 6.264 48.947 6.36 48.611 6.552C48.275 6.744 48.007 7.024 47.807 7.392C47.607 7.76 47.507 8.192 47.507 8.688C47.507 9.192 47.607 9.632 47.807 10.008C48.007 10.376 48.275 10.66 48.611 10.86C48.947 11.052 49.319 11.148 49.727 11.148C50.135 11.148 50.507 11.052 50.843 10.86C51.187 10.66 51.459 10.376 51.659 10.008C51.859 9.632 51.959 9.196 51.959 8.7ZM63.6996 6.084C63.6996 6.78 63.4596 7.36 62.9796 7.824C62.5076 8.28 61.7836 8.508 60.8076 8.508H59.1996V12H58.1076V3.636H60.8076C61.7516 3.636 62.4676 3.864 62.9556 4.32C63.4516 4.776 63.6996 5.364 63.6996 6.084ZM60.8076 7.608C61.4156 7.608 61.8636 7.476 62.1516 7.212C62.4396 6.948 62.5836 6.572 62.5836 6.084C62.5836 5.052 61.9916 4.536 60.8076 4.536H59.1996V7.608H60.8076ZM68.3208 5.304C68.8168 5.304 69.2648 5.412 69.6648 5.628C70.0648 5.836 70.3768 6.152 70.6008 6.576C70.8328 7 70.9488 7.516 70.9488 8.124V12H69.8688V8.28C69.8688 7.624 69.7048 7.124 69.3768 6.78C69.0488 6.428 68.6008 6.252 68.0328 6.252C67.4568 6.252 66.9968 6.432 66.6528 6.792C66.3168 7.152 66.1488 7.676 66.1488 8.364V12H65.0568V3.12H66.1488V6.36C66.3648 6.024 66.6608 5.764 67.0368 5.58C67.4208 5.396 67.8488 5.304 68.3208 5.304ZM73.2966 4.356C73.0886 4.356 72.9126 4.284 72.7686 4.14C72.6246 3.996 72.5526 3.82 72.5526 3.612C72.5526 3.404 72.6246 3.228 72.7686 3.084C72.9126 2.94 73.0886 2.868 73.2966 2.868C73.4966 2.868 73.6646 2.94 73.8006 3.084C73.9446 3.228 74.0166 3.404 74.0166 3.612C74.0166 3.82 73.9446 3.996 73.8006 4.14C73.6646 4.284 73.4966 4.356 73.2966 4.356ZM73.8246 5.424V12H72.7326V5.424H73.8246ZM76.7777 3.12V12H75.6857V3.12H76.7777ZM79.2028 4.356C78.9948 4.356 78.8188 4.284 78.6748 4.14C78.5308 3.996 78.4588 3.82 78.4588 3.612C78.4588 3.404 78.5308 3.228 78.6748 3.084C78.8188 2.94 78.9948 2.868 79.2028 2.868C79.4028 2.868 79.5708 2.94 79.7068 3.084C79.8508 3.228 79.9228 3.404 79.9228 3.612C79.9228 3.82 79.8508 3.996 79.7068 4.14C79.5708 4.284 79.4028 4.356 79.2028 4.356ZM79.7308 5.424V12H78.6388V5.424H79.7308ZM82.684 6.636C82.9 6.26 83.22 5.948 83.644 5.7C84.076 5.444 84.576 5.316 85.144 5.316C85.728 5.316 86.256 5.456 86.728 5.736C87.208 6.016 87.584 6.412 87.856 6.924C88.128 7.428 88.264 8.016 88.264 8.688C88.264 9.352 88.128 9.944 87.856 10.464C87.584 10.984 87.208 11.388 86.728 11.676C86.256 11.964 85.728 12.108 85.144 12.108C84.584 12.108 84.088 11.984 83.656 11.736C83.232 11.48 82.908 11.164 82.684 10.788V15.12H81.592V5.424H82.684V6.636ZM87.148 8.688C87.148 8.192 87.048 7.76 86.848 7.392C86.648 7.024 86.376 6.744 86.032 6.552C85.696 6.36 85.324 6.264 84.916 6.264C84.516 6.264 84.144 6.364 83.8 6.564C83.464 6.756 83.192 7.04 82.984 7.416C82.784 7.784 82.684 8.212 82.684 8.7C82.684 9.196 82.784 9.632 82.984 10.008C83.192 10.376 83.464 10.66 83.8 10.86C84.144 11.052 84.516 11.148 84.916 11.148C85.324 11.148 85.696 11.052 86.032 10.86C86.376 10.66 86.648 10.376 86.848 10.008C87.048 9.632 87.148 9.192 87.148 8.688ZM92.0293 12.108C91.5253 12.108 91.0733 12.024 90.6733 11.856C90.2733 11.68 89.9573 11.44 89.7253 11.136C89.4933 10.824 89.3653 10.468 89.3413 10.068H90.4693C90.5013 10.396 90.6533 10.664 90.9253 10.872C91.2053 11.08 91.5693 11.184 92.0173 11.184C92.4333 11.184 92.7613 11.092 93.0013 10.908C93.2413 10.724 93.3613 10.492 93.3613 10.212C93.3613 9.924 93.2333 9.712 92.9773 9.576C92.7213 9.432 92.3253 9.292 91.7893 9.156C91.3013 9.028 90.9013 8.9 90.5893 8.772C90.2853 8.636 90.0213 8.44 89.7973 8.184C89.5813 7.92 89.4733 7.576 89.4733 7.152C89.4733 6.816 89.5733 6.508 89.7733 6.228C89.9733 5.948 90.2573 5.728 90.6253 5.568C90.9933 5.4 91.4133 5.316 91.8853 5.316C92.6133 5.316 93.2013 5.5 93.6493 5.868C94.0973 6.236 94.3373 6.74 94.3693 7.38H93.2773C93.2533 7.036 93.1133 6.76 92.8573 6.552C92.6093 6.344 92.2733 6.24 91.8493 6.24C91.4573 6.24 91.1453 6.324 90.9133 6.492C90.6813 6.66 90.5653 6.88 90.5653 7.152C90.5653 7.368 90.6333 7.548 90.7693 7.692C90.9133 7.828 91.0893 7.94 91.2973 8.028C91.5133 8.108 91.8093 8.2 92.1853 8.304C92.6573 8.432 93.0413 8.56 93.3373 8.688C93.6333 8.808 93.8853 8.992 94.0933 9.24C94.3093 9.488 94.4213 9.812 94.4293 10.212C94.4293 10.572 94.3293 10.896 94.1293 11.184C93.9293 11.472 93.6453 11.7 93.2773 11.868C92.9173 12.028 92.5013 12.108 92.0293 12.108Z" fill="#979797"/>
<defs>
<clipPath id="clip0_702_280">
<rect width="16" height="16" fill="white"/>
</clipPath>
</defs>
</svg>
