<svg width="108" height="16" viewBox="0 0 108 16" fill="none" xmlns="http://www.w3.org/2000/svg">
<g clip-path="url(#clip0_702_216)">
<path d="M2.66663 14.6667C2.66663 13.2523 3.22853 11.8957 4.22872 10.8955C5.22892 9.89532 6.58547 9.33342 7.99996 9.33342C9.41445 9.33342 10.771 9.89532 11.7712 10.8955C12.7714 11.8957 13.3333 13.2523 13.3333 14.6667H12C12 13.6059 11.5785 12.5885 10.8284 11.8383C10.0782 11.0882 9.06082 10.6667 7.99996 10.6667C6.93909 10.6667 5.92168 11.0882 5.17153 11.8383C4.42139 12.5885 3.99996 13.6059 3.99996 14.6667H2.66663ZM7.99996 8.66675C5.78996 8.66675 3.99996 6.87675 3.99996 4.66675C3.99996 2.45675 5.78996 0.666748 7.99996 0.666748C10.21 0.666748 12 2.45675 12 4.66675C12 6.87675 10.21 8.66675 7.99996 8.66675ZM7.99996 7.33342C9.47329 7.33342 10.6666 6.14008 10.6666 4.66675C10.6666 3.19341 9.47329 2.00008 7.99996 2.00008C6.52663 2.00008 5.33329 3.19341 5.33329 4.66675C5.33329 6.14008 6.52663 7.33342 7.99996 7.33342Z" fill="#979797"/>
</g>
<path d="M25.136 3.636V9.816C25.136 10.504 24.924 11.056 24.5 11.472C24.076 11.88 23.516 12.084 22.82 12.084C22.116 12.084 21.552 11.876 21.128 11.46C20.704 11.036 20.492 10.46 20.492 9.732H21.584C21.592 10.14 21.696 10.472 21.896 10.728C22.104 10.984 22.412 11.112 22.82 11.112C23.228 11.112 23.532 10.992 23.732 10.752C23.932 10.504 24.032 10.192 24.032 9.816V3.636H25.136ZM26.8793 8.688C26.8793 8.016 27.0153 7.428 27.2873 6.924C27.5593 6.412 27.9313 6.016 28.4033 5.736C28.8833 5.456 29.4153 5.316 29.9993 5.316C30.5753 5.316 31.0753 5.44 31.4993 5.688C31.9233 5.936 32.2393 6.248 32.4473 6.624V5.424H33.5513V12H32.4473V10.776C32.2313 11.16 31.9073 11.48 31.4753 11.736C31.0513 11.984 30.5553 12.108 29.9873 12.108C29.4033 12.108 28.8753 11.964 28.4033 11.676C27.9313 11.388 27.5593 10.984 27.2873 10.464C27.0153 9.944 26.8793 9.352 26.8793 8.688ZM32.4473 8.7C32.4473 8.204 32.3473 7.772 32.1473 7.404C31.9473 7.036 31.6753 6.756 31.3313 6.564C30.9953 6.364 30.6233 6.264 30.2153 6.264C29.8073 6.264 29.4353 6.36 29.0993 6.552C28.7633 6.744 28.4953 7.024 28.2953 7.392C28.0953 7.76 27.9953 8.192 27.9953 8.688C27.9953 9.192 28.0953 9.632 28.2953 10.008C28.4953 10.376 28.7633 10.66 29.0993 10.86C29.4353 11.052 29.8073 11.148 30.2153 11.148C30.6233 11.148 30.9953 11.052 31.3313 10.86C31.6753 10.66 31.9473 10.376 32.1473 10.008C32.3473 9.632 32.4473 9.196 32.4473 8.7ZM43.3047 5.304C43.8167 5.304 44.2727 5.412 44.6727 5.628C45.0727 5.836 45.3887 6.152 45.6207 6.576C45.8527 7 45.9687 7.516 45.9687 8.124V12H44.8887V8.28C44.8887 7.624 44.7247 7.124 44.3967 6.78C44.0767 6.428 43.6407 6.252 43.0887 6.252C42.5207 6.252 42.0687 6.436 41.7327 6.804C41.3967 7.164 41.2287 7.688 41.2287 8.376V12H40.1487V8.28C40.1487 7.624 39.9847 7.124 39.6567 6.78C39.3367 6.428 38.9007 6.252 38.3487 6.252C37.7807 6.252 37.3287 6.436 36.9927 6.804C36.6567 7.164 36.4887 7.688 36.4887 8.376V12H35.3967V5.424H36.4887V6.372C36.7047 6.028 36.9927 5.764 37.3527 5.58C37.7207 5.396 38.1247 5.304 38.5647 5.304C39.1167 5.304 39.6047 5.428 40.0287 5.676C40.4527 5.924 40.7687 6.288 40.9767 6.768C41.1607 6.304 41.4647 5.944 41.8887 5.688C42.3127 5.432 42.7847 5.304 43.3047 5.304ZM53.7599 8.46C53.7599 8.668 53.7479 8.888 53.7239 9.12H48.4679C48.5079 9.768 48.7279 10.276 49.1279 10.644C49.5359 11.004 50.0279 11.184 50.6039 11.184C51.0759 11.184 51.4679 11.076 51.7799 10.86C52.0999 10.636 52.3239 10.34 52.4519 9.972H53.6279C53.4519 10.604 53.0999 11.12 52.5719 11.52C52.0439 11.912 51.3879 12.108 50.6039 12.108C49.9799 12.108 49.4199 11.968 48.9239 11.688C48.4359 11.408 48.0519 11.012 47.7719 10.5C47.4919 9.98 47.3519 9.38 47.3519 8.7C47.3519 8.02 47.4879 7.424 47.7599 6.912C48.0319 6.4 48.4119 6.008 48.8999 5.736C49.3959 5.456 49.9639 5.316 50.6039 5.316C51.2279 5.316 51.7799 5.452 52.2599 5.724C52.7399 5.996 53.1079 6.372 53.3639 6.852C53.6279 7.324 53.7599 7.86 53.7599 8.46ZM52.6319 8.232C52.6319 7.816 52.5399 7.46 52.3559 7.164C52.1719 6.86 51.9199 6.632 51.5999 6.48C51.2879 6.32 50.9399 6.24 50.5559 6.24C50.0039 6.24 49.5319 6.416 49.1399 6.768C48.7559 7.12 48.5359 7.608 48.4799 8.232H52.6319ZM57.5293 12.108C57.0253 12.108 56.5733 12.024 56.1733 11.856C55.7733 11.68 55.4573 11.44 55.2253 11.136C54.9933 10.824 54.8653 10.468 54.8413 10.068H55.9693C56.0013 10.396 56.1533 10.664 56.4253 10.872C56.7053 11.08 57.0693 11.184 57.5173 11.184C57.9333 11.184 58.2613 11.092 58.5013 10.908C58.7413 10.724 58.8613 10.492 58.8613 10.212C58.8613 9.924 58.7333 9.712 58.4773 9.576C58.2213 9.432 57.8253 9.292 57.2893 9.156C56.8013 9.028 56.4013 8.9 56.0893 8.772C55.7853 8.636 55.5213 8.44 55.2973 8.184C55.0813 7.92 54.9733 7.576 54.9733 7.152C54.9733 6.816 55.0733 6.508 55.2733 6.228C55.4733 5.948 55.7573 5.728 56.1253 5.568C56.4933 5.4 56.9133 5.316 57.3853 5.316C58.1133 5.316 58.7013 5.5 59.1493 5.868C59.5973 6.236 59.8373 6.74 59.8693 7.38H58.7773C58.7533 7.036 58.6133 6.76 58.3573 6.552C58.1093 6.344 57.7733 6.24 57.3493 6.24C56.9573 6.24 56.6453 6.324 56.4133 6.492C56.1813 6.66 56.0653 6.88 56.0653 7.152C56.0653 7.368 56.1333 7.548 56.2693 7.692C56.4133 7.828 56.5893 7.94 56.7973 8.028C57.0133 8.108 57.3093 8.2 57.6853 8.304C58.1573 8.432 58.5413 8.56 58.8373 8.688C59.1333 8.808 59.3853 8.992 59.5933 9.24C59.8093 9.488 59.9213 9.812 59.9293 10.212C59.9293 10.572 59.8293 10.896 59.6293 11.184C59.4293 11.472 59.1453 11.7 58.7773 11.868C58.4173 12.028 58.0013 12.108 57.5293 12.108ZM64.2621 7.812C64.2621 6.996 64.4461 6.264 64.8141 5.616C65.1821 4.96 65.6821 4.448 66.3141 4.08C66.9541 3.712 67.6621 3.528 68.4381 3.528C69.3501 3.528 70.1461 3.748 70.8261 4.188C71.5061 4.628 72.0021 5.252 72.3141 6.06H71.0061C70.7741 5.556 70.4381 5.168 69.9981 4.896C69.5661 4.624 69.0461 4.488 68.4381 4.488C67.8541 4.488 67.3301 4.624 66.8661 4.896C66.4021 5.168 66.0381 5.556 65.7741 6.06C65.5101 6.556 65.3781 7.14 65.3781 7.812C65.3781 8.476 65.5101 9.06 65.7741 9.564C66.0381 10.06 66.4021 10.444 66.8661 10.716C67.3301 10.988 67.8541 11.124 68.4381 11.124C69.0461 11.124 69.5661 10.992 69.9981 10.728C70.4381 10.456 70.7741 10.068 71.0061 9.564H72.3141C72.0021 10.364 71.5061 10.984 70.8261 11.424C70.1461 11.856 69.3501 12.072 68.4381 12.072C67.6621 12.072 66.9541 11.892 66.3141 11.532C65.6821 11.164 65.1821 10.656 64.8141 10.008C64.4461 9.36 64.2621 8.628 64.2621 7.812ZM73.5316 8.688C73.5316 8.016 73.6676 7.428 73.9396 6.924C74.2116 6.412 74.5836 6.016 75.0556 5.736C75.5356 5.456 76.0676 5.316 76.6516 5.316C77.2276 5.316 77.7276 5.44 78.1516 5.688C78.5756 5.936 78.8916 6.248 79.0996 6.624V5.424H80.2036V12H79.0996V10.776C78.8836 11.16 78.5596 11.48 78.1276 11.736C77.7036 11.984 77.2076 12.108 76.6396 12.108C76.0556 12.108 75.5276 11.964 75.0556 11.676C74.5836 11.388 74.2116 10.984 73.9396 10.464C73.6676 9.944 73.5316 9.352 73.5316 8.688ZM79.0996 8.7C79.0996 8.204 78.9996 7.772 78.7996 7.404C78.5996 7.036 78.3276 6.756 77.9836 6.564C77.6476 6.364 77.2756 6.264 76.8676 6.264C76.4596 6.264 76.0876 6.36 75.7516 6.552C75.4156 6.744 75.1476 7.024 74.9476 7.392C74.7476 7.76 74.6476 8.192 74.6476 8.688C74.6476 9.192 74.7476 9.632 74.9476 10.008C75.1476 10.376 75.4156 10.66 75.7516 10.86C76.0876 11.052 76.4596 11.148 76.8676 11.148C77.2756 11.148 77.6476 11.052 77.9836 10.86C78.3276 10.66 78.5996 10.376 78.7996 10.008C78.9996 9.632 79.0996 9.196 79.0996 8.7ZM83.141 3.12V12H82.049V3.12H83.141ZM85.8181 11.1H89.0461V12H84.5701V11.1L87.7621 6.312H84.5941V5.424H89.0221V6.312L85.8181 11.1ZM93.3311 12.108C92.7151 12.108 92.1551 11.968 91.6511 11.688C91.1551 11.408 90.7631 11.012 90.4751 10.5C90.1951 9.98 90.0551 9.38 90.0551 8.7C90.0551 8.028 90.1991 7.436 90.4871 6.924C90.7831 6.404 91.1831 6.008 91.6871 5.736C92.1911 5.456 92.7551 5.316 93.3791 5.316C94.0031 5.316 94.5671 5.456 95.0711 5.736C95.5751 6.008 95.9711 6.4 96.2591 6.912C96.5551 7.424 96.7031 8.02 96.7031 8.7C96.7031 9.38 96.5511 9.98 96.2471 10.5C95.9511 11.012 95.5471 11.408 95.0351 11.688C94.5231 11.968 93.9551 12.108 93.3311 12.108ZM93.3311 11.148C93.7231 11.148 94.0911 11.056 94.4351 10.872C94.7791 10.688 95.0551 10.412 95.2631 10.044C95.4791 9.676 95.5871 9.228 95.5871 8.7C95.5871 8.172 95.4831 7.724 95.2751 7.356C95.0671 6.988 94.7951 6.716 94.4591 6.54C94.1231 6.356 93.7591 6.264 93.3671 6.264C92.9671 6.264 92.5991 6.356 92.2631 6.54C91.9351 6.716 91.6711 6.988 91.4711 7.356C91.2711 7.724 91.1711 8.172 91.1711 8.7C91.1711 9.236 91.2671 9.688 91.4591 10.056C91.6591 10.424 91.9231 10.7 92.2511 10.884C92.5791 11.06 92.9391 11.148 93.3311 11.148ZM101.343 5.304C102.143 5.304 102.791 5.548 103.287 6.036C103.783 6.516 104.031 7.212 104.031 8.124V12H102.951V8.28C102.951 7.624 102.787 7.124 102.459 6.78C102.131 6.428 101.683 6.252 101.115 6.252C100.539 6.252 100.079 6.432 99.7348 6.792C99.3988 7.152 99.2308 7.676 99.2308 8.364V12H98.1388V5.424H99.2308V6.36C99.4468 6.024 99.7388 5.764 100.107 5.58C100.483 5.396 100.895 5.304 101.343 5.304ZM106.379 4.356C106.171 4.356 105.995 4.284 105.851 4.14C105.707 3.996 105.635 3.82 105.635 3.612C105.635 3.404 105.707 3.228 105.851 3.084C105.995 2.94 106.171 2.868 106.379 2.868C106.579 2.868 106.747 2.94 106.883 3.084C107.027 3.228 107.099 3.404 107.099 3.612C107.099 3.82 107.027 3.996 106.883 4.14C106.747 4.284 106.579 4.356 106.379 4.356ZM106.907 5.424V12H105.815V5.424H106.907Z" fill="#979797"/>
<defs>
<clipPath id="clip0_702_216">
<rect width="16" height="16" fill="white"/>
</clipPath>
</defs>
</svg>
