<svg width="58" height="16" viewBox="0 0 58 16" fill="none" xmlns="http://www.w3.org/2000/svg">
<g clip-path="url(#clip0_702_274)">
<path d="M11.3333 2.66659H14C14.1768 2.66659 14.3464 2.73682 14.4714 2.86185C14.5964 2.98687 14.6666 3.15644 14.6666 3.33325V13.9999C14.6666 14.1767 14.5964 14.3463 14.4714 14.4713C14.3464 14.5963 14.1768 14.6666 14 14.6666H1.99998C1.82317 14.6666 1.6536 14.5963 1.52858 14.4713C1.40355 14.3463 1.33331 14.1767 1.33331 13.9999V3.33325C1.33331 3.15644 1.40355 2.98687 1.52858 2.86185C1.6536 2.73682 1.82317 2.66659 1.99998 2.66659H4.66665V1.33325H5.99998V2.66659H9.99998V1.33325H11.3333V2.66659ZM13.3333 7.99992H2.66665V13.3333H13.3333V7.99992ZM9.99998 3.99992H5.99998V5.33325H4.66665V3.99992H2.66665V6.66659H13.3333V3.99992H11.3333V5.33325H9.99998V3.99992ZM3.99998 9.33325H5.33331V10.6666H3.99998V9.33325ZM7.33331 9.33325H8.66665V10.6666H7.33331V9.33325ZM10.6666 9.33325H12V10.6666H10.6666V9.33325Z" fill="#979797"/>
</g>
<path d="M26.072 3.636V4.524H23.792V12H22.7V4.524H20.408V3.636H26.072ZM30.2842 12.108C29.6682 12.108 29.1082 11.968 28.6042 11.688C28.1082 11.408 27.7162 11.012 27.4282 10.5C27.1482 9.98 27.0082 9.38 27.0082 8.7C27.0082 8.028 27.1522 7.436 27.4402 6.924C27.7362 6.404 28.1362 6.008 28.6402 5.736C29.1442 5.456 29.7082 5.316 30.3322 5.316C30.9562 5.316 31.5202 5.456 32.0242 5.736C32.5282 6.008 32.9242 6.4 33.2122 6.912C33.5082 7.424 33.6562 8.02 33.6562 8.7C33.6562 9.38 33.5042 9.98 33.2002 10.5C32.9042 11.012 32.5002 11.408 31.9882 11.688C31.4762 11.968 30.9082 12.108 30.2842 12.108ZM30.2842 11.148C30.6762 11.148 31.0442 11.056 31.3882 10.872C31.7322 10.688 32.0082 10.412 32.2162 10.044C32.4322 9.676 32.5402 9.228 32.5402 8.7C32.5402 8.172 32.4362 7.724 32.2282 7.356C32.0202 6.988 31.7482 6.716 31.4122 6.54C31.0762 6.356 30.7122 6.264 30.3202 6.264C29.9202 6.264 29.5522 6.356 29.2162 6.54C28.8882 6.716 28.6242 6.988 28.4242 7.356C28.2242 7.724 28.1242 8.172 28.1242 8.7C28.1242 9.236 28.2202 9.688 28.4122 10.056C28.6122 10.424 28.8762 10.7 29.2042 10.884C29.5322 11.06 29.8922 11.148 30.2842 11.148ZM34.684 8.688C34.684 8.016 34.82 7.428 35.092 6.924C35.364 6.412 35.736 6.016 36.208 5.736C36.688 5.456 37.224 5.316 37.816 5.316C38.328 5.316 38.804 5.436 39.244 5.676C39.684 5.908 40.02 6.216 40.252 6.6V3.12H41.356V12H40.252V10.764C40.036 11.156 39.716 11.48 39.292 11.736C38.868 11.984 38.372 12.108 37.804 12.108C37.22 12.108 36.688 11.964 36.208 11.676C35.736 11.388 35.364 10.984 35.092 10.464C34.82 9.944 34.684 9.352 34.684 8.688ZM40.252 8.7C40.252 8.204 40.152 7.772 39.952 7.404C39.752 7.036 39.48 6.756 39.136 6.564C38.8 6.364 38.428 6.264 38.02 6.264C37.612 6.264 37.24 6.36 36.904 6.552C36.568 6.744 36.3 7.024 36.1 7.392C35.9 7.76 35.8 8.192 35.8 8.688C35.8 9.192 35.9 9.632 36.1 10.008C36.3 10.376 36.568 10.66 36.904 10.86C37.24 11.052 37.612 11.148 38.02 11.148C38.428 11.148 38.8 11.052 39.136 10.86C39.48 10.66 39.752 10.376 39.952 10.008C40.152 9.632 40.252 9.196 40.252 8.7ZM42.7933 8.688C42.7933 8.016 42.9293 7.428 43.2013 6.924C43.4733 6.412 43.8453 6.016 44.3173 5.736C44.7973 5.456 45.3293 5.316 45.9133 5.316C46.4893 5.316 46.9893 5.44 47.4133 5.688C47.8373 5.936 48.1533 6.248 48.3613 6.624V5.424H49.4653V12H48.3613V10.776C48.1453 11.16 47.8213 11.48 47.3893 11.736C46.9653 11.984 46.4693 12.108 45.9013 12.108C45.3173 12.108 44.7893 11.964 44.3173 11.676C43.8453 11.388 43.4733 10.984 43.2013 10.464C42.9293 9.944 42.7933 9.352 42.7933 8.688ZM48.3613 8.7C48.3613 8.204 48.2613 7.772 48.0613 7.404C47.8613 7.036 47.5893 6.756 47.2453 6.564C46.9093 6.364 46.5373 6.264 46.1293 6.264C45.7213 6.264 45.3493 6.36 45.0133 6.552C44.6773 6.744 44.4093 7.024 44.2093 7.392C44.0093 7.76 43.9093 8.192 43.9093 8.688C43.9093 9.192 44.0093 9.632 44.2093 10.008C44.4093 10.376 44.6773 10.66 45.0133 10.86C45.3493 11.052 45.7213 11.148 46.1293 11.148C46.5373 11.148 46.9093 11.052 47.2453 10.86C47.5893 10.66 47.8613 10.376 48.0613 10.008C48.2613 9.632 48.3613 9.196 48.3613 8.7ZM56.9747 5.424L53.0147 15.096H51.8867L53.1827 11.928L50.5307 5.424H51.7427L53.8067 10.752L55.8467 5.424H56.9747Z" fill="#979797"/>
<defs>
<clipPath id="clip0_702_274">
<rect width="16" height="16" fill="white"/>
</clipPath>
</defs>
</svg>
